<svg width="25" height="25" fill="none" xmlns="http://www.w3.org/2000/svg"><g clip-path="url(#clip0_21_822)"><path d="M12.5 9.523a2.977 2.977 0 10.002 5.954 2.977 2.977 0 00-.002-5.954zm6.96-2.288a3.015 3.015 0 00-1.698-1.697C16.59 5.077 13.8 5.18 12.5 5.18c-1.3 0-4.088-.108-5.263.359A3.014 3.014 0 005.54 7.234c-.462 1.172-.359 3.965-.359 5.264 0 1.3-.103 4.09.361 5.265a3.013 3.013 0 001.697 1.697c1.172.463 3.962.359 5.263.359 1.301 0 4.087.107 5.263-.36a3.013 3.013 0 001.697-1.696c.465-1.172.358-3.965.358-5.264 0-1.3.107-4.088-.358-5.264h-.003zm-6.96 9.84a4.576 4.576 0 110-9.151 4.576 4.576 0 010 9.152zM17.265 8.8a1.068 1.068 0 11.987-.659 1.064 1.064 0 01-.985.661l-.002-.002zM22.32 0H2.68A2.679 2.679 0 000 2.679V22.32A2.679 2.679 0 002.679 25H22.32A2.679 2.679 0 0025 22.321V2.68A2.679 2.679 0 0022.321 0zm-.955 16.183c-.072 1.43-.398 2.698-1.442 3.739s-2.31 1.374-3.74 1.442c-1.473.084-5.892.084-7.365 0-1.43-.072-2.693-.399-3.74-1.442-1.045-1.044-1.374-2.312-1.442-3.739-.083-1.474-.083-5.893 0-7.366.072-1.43.395-2.698 1.443-3.739s2.314-1.37 3.739-1.438c1.473-.084 5.892-.084 7.366 0 1.43.071 2.697.398 3.739 1.442 1.041 1.044 1.374 2.311 1.442 3.742.083 1.468.083 5.884 0 7.359z" fill="#000"/></g><defs><clipPath id="clip0_21_822"><path fill="#fff" d="M0 0h25v25H0z"/></clipPath></defs></svg>