<svg width="25" height="25" fill="none" xmlns="http://www.w3.org/2000/svg"><g clip-path="url(#clip0_21_818)"><path d="M22.321 0H2.68A2.68 2.68 0 000 2.679V22.32A2.68 2.68 0 002.679 25H22.32A2.68 2.68 0 0025 22.321V2.68A2.68 2.68 0 0022.321 0zm-2.728 8.862c.01.156.01.318.01.474 0 4.838-3.682 10.413-10.412 10.413-2.076 0-4.001-.603-5.62-1.64.296.033.58.044.882.044 1.713 0 3.287-.58 4.543-1.563a3.665 3.665 0 01-3.421-2.539c.563.084 1.071.084 1.652-.067a3.66 3.66 0 01-2.93-3.593v-.045c.485.273 1.055.44 1.652.463a3.653 3.653 0 01-1.63-3.047c0-.68.179-1.306.497-1.847a10.392 10.392 0 007.545 3.828c-.52-2.483 1.339-4.497 3.57-4.497 1.056 0 2.004.44 2.674 1.155a7.171 7.171 0 002.321-.882 3.65 3.65 0 01-1.607 2.014 7.284 7.284 0 002.11-.569 7.705 7.705 0 01-1.836 1.898z" fill="#000"/></g><defs><clipPath id="clip0_21_818"><path fill="#fff" d="M0 0h25v25H0z"/></clipPath></defs></svg>