<svg width="25" height="25" fill="none" xmlns="http://www.w3.org/2000/svg"><path d="M19.715 18.653h-1.288l.006-.754a.61.61 0 01.607-.608h.082a.61.61 0 01.607.608l-.014.754zm-4.829-1.615c-.326 0-.593.221-.593.492v3.665c0 .27.267.49.593.49.328 0 .596-.22.596-.49V17.53c0-.27-.268-.492-.596-.492zm7.841-2.05v6.972c0 1.672-1.439 3.04-3.198 3.04H6.38c-1.759 0-3.197-1.368-3.197-3.04v-6.972c0-1.672 1.438-3.04 3.198-3.04h13.15c1.758 0 3.197 1.368 3.197 3.04zm-15.47 7.729l-.001-7.344h1.63v-1.087l-4.346-.007v1.07l1.357.004v7.364h1.36zm4.886-6.25h-1.359v3.921c0 .568.034.851-.002.951-.11.304-.607.627-.8.033-.034-.104-.005-.418-.005-.957l-.006-3.948H8.62l.004 3.886c0 .596-.013 1.04.005 1.242.033.356.02.772.349 1.01.611.443 1.783-.067 2.077-.701l-.003.81h1.091v-6.247zm4.348 4.49l-.003-3.263c-.001-1.244-.924-1.99-2.178-.983l.005-2.426-1.357.002-.007 8.375 1.116-.016.102-.522c1.427 1.32 2.324.416 2.322-1.167zm4.253-.432l-1.02.005-.001.14v.572a.558.558 0 01-.557.557h-.2a.558.558 0 01-.557-.557V19.735h2.333v-.885c0-.647-.016-1.293-.07-1.663-.166-1.17-1.795-1.356-2.618-.757a1.543 1.543 0 00-.57.774c-.117.336-.174.796-.174 1.38v1.946c0 3.235 3.9 2.777 3.434-.005zM15.517 9.96a.93.93 0 00.327.416.942.942 0 00.556.155.86.86 0 00.52-.163c.151-.11.278-.273.381-.491l-.025.537h1.515V3.922h-1.193v5.053a.499.499 0 01-.497.497.5.5 0 01-.496-.497V3.922H15.36V8.3c0 .557.01.93.027 1.118.017.187.06.367.13.54zm-4.59-3.667c0-.623.05-1.11.153-1.46.103-.35.289-.631.557-.843.268-.213.61-.32 1.027-.32.35 0 .65.07.902.205.252.137.446.314.58.533.138.22.231.445.281.676.051.234.076.587.076 1.063V7.79c0 .602-.024 1.045-.07 1.327a2.117 2.117 0 01-.299.789 1.423 1.423 0 01-.583.54 1.85 1.85 0 01-.822.174c-.345 0-.636-.049-.876-.149-.24-.1-.426-.25-.558-.45a2.008 2.008 0 01-.285-.728c-.057-.284-.084-.71-.084-1.28V6.293zm1.186 2.58c0 .367.271.667.602.667.33 0 .601-.3.601-.668V5.416c0-.367-.27-.667-.601-.667-.33 0-.602.3-.602.667v3.456zM7.92 10.616h1.43v-4.98l1.69-4.265H9.475L8.58 4.541l-.911-3.177H6.121L7.918 5.64l.002 4.977z" fill="#000"/></svg>